<?xml version="1.0" standalone="no"?>
<!DOCTYPE svg PUBLIC "-//W3C//DTD SVG 20010904//EN"
 "http://www.w3.org/TR/2001/REC-SVG-20010904/DTD/svg10.dtd">
<svg version="1.0" xmlns="http://www.w3.org/2000/svg"
 width="1024.000000pt" height="1024.000000pt" viewBox="0 0 1024.000000 1024.000000"
 preserveAspectRatio="xMidYMid meet">

<g transform="translate(0.000000,1024.000000) scale(0.100000,-0.100000)"
fill="#000000" stroke="none">
<path d="M1255 7350 c-3 -5 -2 -10 4 -10 5 0 13 5 16 10 3 6 2 10 -4 10 -5 0
-13 -4 -16 -10z"/>
<path d="M1218 7280 c-13 -23 -14 -28 -2 -23 8 3 14 13 14 22 0 14 2 14 10 1
5 -8 11 -12 14 -10 2 3 -1 12 -8 22 -10 14 -13 13 -28 -12z"/>
<path d="M1370 7269 c0 -5 5 -7 10 -4 6 3 10 8 10 11 0 2 -4 4 -10 4 -5 0 -10
-5 -10 -11z"/>
<path d="M1350 7235 c-7 -9 -8 -15 -2 -15 5 0 12 7 16 15 3 8 4 15 2 15 -2 0
-9 -7 -16 -15z"/>
<path d="M1215 7230 c-3 -5 -1 -10 4 -10 6 0 11 5 11 10 0 6 -2 10 -4 10 -3 0
-8 -4 -11 -10z"/>
<path d="M1095 7049 c-4 -6 -5 -12 -2 -15 2 -3 7 2 10 11 7 17 1 20 -8 4z"/>
<path d="M1052 6955 c-7 -15 -8 -25 -2 -25 6 0 10 -4 10 -10 0 -5 -6 -7 -14
-4 -9 3 -17 -3 -21 -18 -4 -13 -18 -47 -32 -77 -13 -29 -22 -56 -19 -59 3 -2
1 -14 -5 -26 -9 -20 -9 -20 4 -3 11 14 16 15 21 5 3 -7 4 -4 3 7 -1 12 3 19
12 17 8 -2 11 3 8 13 -4 8 -1 15 4 15 7 0 9 11 7 25 -3 14 -1 25 3 25 5 0 9
-9 9 -20 0 -11 5 -20 10 -20 6 0 10 10 9 23 -4 40 1 57 15 57 8 0 18 5 21 11
10 15 -4 61 -15 54 -6 -3 -10 0 -10 9 0 8 6 17 13 19 8 4 6 6 -4 6 -9 1 -21
-10 -27 -24z m29 -58 c-8 -8 -11 -7 -11 4 0 20 13 34 18 19 3 -7 -1 -17 -7
-23z m-35 -27 c0 -12 -4 -16 -9 -11 -5 5 -6 14 -3 20 10 15 12 14 12 -9z"/>
<path d="M1117 6889 c7 -7 15 -10 18 -7 3 3 -2 9 -12 12 -14 6 -15 5 -6 -5z"/>
<path d="M1148 6833 c7 -3 16 -2 19 1 4 3 -2 6 -13 5 -11 0 -14 -3 -6 -6z"/>
<path d="M1130 6801 c0 -6 5 -13 10 -16 6 -3 10 1 10 9 0 9 -4 16 -10 16 -5 0
-10 -4 -10 -9z"/>
<path d="M1090 6793 c0 -5 5 -15 10 -23 6 -10 4 -22 -6 -38 -18 -27 -9 -49 12
-31 8 6 14 19 14 28 0 9 5 22 12 29 9 9 9 12 0 12 -7 0 -12 7 -12 15 0 8 -7
15 -15 15 -8 0 -15 -3 -15 -7z"/>
<path d="M1010 6740 c0 -5 7 -10 15 -10 8 0 15 5 15 10 0 6 -7 10 -15 10 -8 0
-15 -4 -15 -10z"/>
<path d="M945 6701 c-3 -5 -2 -12 3 -15 5 -3 9 1 9 9 0 17 -3 19 -12 6z"/>
<path d="M932 6665 c4 -4 3 -14 -4 -22 -6 -7 -9 -15 -7 -18 3 -2 10 4 17 15 9
15 9 21 -1 26 -6 4 -9 4 -5 -1z"/>
<path d="M940 6611 c0 -6 4 -13 10 -16 6 -3 7 1 4 9 -7 18 -14 21 -14 7z"/>
<path d="M907 6590 c-3 -11 -1 -20 4 -20 5 0 9 9 9 20 0 11 -2 20 -4 20 -2 0
-6 -9 -9 -20z"/>
<path d="M930 6581 c0 -5 7 -12 16 -15 14 -5 15 -4 4 9 -14 17 -20 19 -20 6z"/>
<path d="M986 6545 c4 -8 8 -15 10 -15 2 0 4 7 4 15 0 8 -4 15 -10 15 -5 0 -7
-7 -4 -15z"/>
<path d="M890 6541 c0 -5 6 -12 13 -14 7 -3 5 -6 -5 -6 -24 -1 -71 -155 -64
-208 4 -28 3 -31 -2 -13 -10 30 -9 32 -46 -110 -61 -237 -95 -454 -117 -740
-15 -197 -6 -678 16 -850 63 -501 188 -935 395 -1381 332 -715 889 -1363 1553
-1808 197 -132 298 -190 498 -290 459 -229 942 -372 1484 -437 172 -21 645
-29 835 -15 391 30 783 110 1134 231 884 305 1659 895 2202 1675 138 198 245
381 353 606 39 81 71 149 71 152 0 3 14 35 30 70 16 36 30 71 30 79 0 8 4 18
9 23 5 6 36 91 69 190 70 211 143 502 167 665 2 14 13 86 24 160 11 74 25 212
31 305 12 199 13 512 3 501 -5 -4 -6 -75 -5 -156 4 -157 -2 -214 -21 -207 -8
3 -11 -9 -8 -39 2 -28 -1 -44 -8 -44 -6 0 -11 -16 -11 -36 0 -32 -24 -73 -36
-62 -2 3 2 11 11 18 23 19 20 60 -5 60 -15 0 -20 -7 -20 -25 0 -14 -5 -25 -11
-25 -7 0 -9 10 -5 25 4 14 2 25 -4 25 -5 0 -10 -12 -10 -26 0 -22 -2 -25 -15
-14 -13 11 -15 4 -15 -51 0 -35 -7 -109 -15 -164 -18 -124 -18 -136 -5 -115 5
8 10 10 10 4 0 -6 -7 -17 -15 -24 -18 -15 -20 -56 -3 -63 8 -3 6 -6 -4 -6 -12
-1 -18 -9 -18 -25 0 -60 -88 -409 -150 -596 -152 -460 -337 -819 -619 -1205
-225 -308 -543 -632 -861 -876 -615 -473 -1351 -766 -2145 -856 -217 -24 -747
-24 -940 0 -743 95 -1340 313 -1920 702 -475 319 -878 723 -1192 1195 -382
574 -618 1223 -695 1915 -20 187 -18 792 5 970 30 244 55 377 106 579 16 66
28 123 25 128 -3 4 -1 8 4 8 13 0 22 39 11 46 -5 3 -9 11 -9 17 0 7 4 6 10 -3
5 -8 10 -12 11 -7 1 4 2 10 3 15 1 4 5 13 9 20 5 6 5 17 2 22 -3 6 -1 10 4 10
15 0 14 27 -1 36 -8 5 -9 2 -5 -10 4 -11 3 -15 -4 -11 -6 4 -13 -3 -16 -15 -4
-16 -8 -18 -14 -8 -7 10 -9 9 -9 -4 0 -11 -5 -15 -14 -12 -21 8 -28 32 -9 30
28 -2 37 28 18 57 -20 31 -32 34 -38 10 -4 -17 -5 -17 -6 0 -1 17 -31 25 -31
8z m65 -41 c1 -11 -2 -20 -7 -20 -4 0 -8 12 -8 27 0 30 13 24 15 -7z m-30 0
c3 -5 1 -10 -4 -10 -6 0 -11 5 -11 10 0 6 2 10 4 10 3 0 8 -4 11 -10z m-5
-316 c0 -2 -9 -4 -20 -4 -11 0 -20 4 -20 9 0 5 9 7 20 4 11 -3 20 -7 20 -9z
m0 -70 c0 -8 -5 -12 -10 -9 -6 4 -8 11 -5 16 9 14 15 11 15 -7z m-20 -24 c0
-5 -5 -10 -11 -10 -5 0 -7 5 -4 10 3 6 8 10 11 10 2 0 4 -4 4 -10z m-123 -42
c-3 -7 -5 -2 -5 12 0 14 2 19 5 13 2 -7 2 -19 0 -25z m8780 -1195 c-2 -21 -4
-6 -4 32 0 39 2 55 4 38 2 -18 2 -50 0 -70z m-20 -40 c-3 -10 -5 -4 -5 12 0
17 2 24 5 18 2 -7 2 -21 0 -30z m20 -25 c-3 -8 -6 -5 -6 6 -1 11 2 17 5 13 3
-3 4 -12 1 -19z m-120 -10 c-3 -8 -6 -5 -6 6 -1 11 2 17 5 13 3 -3 4 -12 1
-19z m113 -38 c0 -13 -6 -20 -17 -19 -11 0 -13 3 -5 6 6 2 12 11 12 19 0 8 2
14 5 14 3 0 5 -9 5 -20z m-113 -122 c-3 -8 -6 -5 -6 6 -1 11 2 17 5 13 3 -3 4
-12 1 -19z m-20 -30 c-3 -8 -6 -5 -6 6 -1 11 2 17 5 13 3 -3 4 -12 1 -19z m20
-140 c-2 -13 -4 -5 -4 17 -1 22 1 32 4 23 2 -10 2 -28 0 -40z m-27 -10 c0 -18
-2 -20 -9 -8 -6 8 -7 18 -5 22 9 14 14 9 14 -14z m67 -110 c-3 -7 -5 -2 -5 12
0 14 2 19 5 13 2 -7 2 -19 0 -25z m-30 0 c-3 -8 -6 -5 -6 6 -1 11 2 17 5 13 3
-3 4 -12 1 -19z m8 -27 c3 -5 1 -12 -5 -16 -5 -3 -10 1 -10 9 0 18 6 21 15 7z"/>
<path d="M2155 6173 c42 -67 485 -717 548 -806 44 -61 67 -103 63 -113 -6 -16
-175 -265 -283 -419 l-56 -80 89 85 c131 124 621 598 999 966 182 177 345 334
363 349 17 15 32 31 32 36 0 5 -103 9 -242 9 l-243 -1 -156 -241 c-86 -133
-161 -243 -165 -245 -5 -1 -79 106 -164 240 l-156 242 -323 3 -323 2 17 -27z"/>
<path d="M9512 5870 c0 -14 2 -19 5 -12 2 6 2 18 0 25 -3 6 -5 1 -5 -13z"/>
<path d="M9531 5734 c0 -11 3 -14 6 -6 3 7 2 16 -1 19 -3 4 -6 -2 -5 -13z"/>
<path d="M9541 5664 c0 -11 3 -14 6 -6 3 7 2 16 -1 19 -3 4 -6 -2 -5 -13z"/>
<path d="M7849 5588 c-259 -33 -413 -319 -299 -553 144 -297 583 -297 725 0
37 78 46 207 20 287 -60 185 -241 293 -446 266z m154 -141 c150 -64 203 -262
107 -403 -37 -52 -82 -81 -152 -96 -104 -22 -224 41 -266 139 -28 66 -34 123
-18 182 30 116 121 191 234 191 34 0 77 -6 95 -13z"/>
<path d="M9552 5575 c0 -16 2 -22 5 -12 2 9 2 23 0 30 -3 6 -5 -1 -5 -18z"/>
<path d="M4855 5553 c10 -16 67 -96 127 -179 59 -83 108 -156 108 -162 0 -6
-58 -92 -130 -192 -71 -100 -130 -183 -130 -186 0 -2 38 -4 84 -4 l84 0 92
135 c51 74 95 135 99 135 3 -1 47 -61 96 -135 50 -73 97 -135 105 -137 8 -2
48 -1 88 2 l73 5 -136 189 -136 189 36 51 c20 28 78 111 131 184 l94 133 -86
-3 -87 -3 -84 -125 c-47 -69 -86 -126 -88 -128 -2 -2 -44 56 -95 127 l-91 131
-86 0 -85 0 17 -27z"/>
<path d="M6040 5206 l0 -376 75 0 75 0 0 110 0 110 85 0 c234 0 363 92 365
261 1 108 -49 192 -138 236 -56 27 -62 28 -259 31 l-203 3 0 -375z m375 230
c19 -8 44 -30 55 -48 41 -68 14 -165 -55 -194 -22 -9 -69 -14 -130 -14 l-95 0
0 135 0 135 95 0 c61 0 108 -5 130 -14z"/>
<path d="M6772 5206 l3 -376 73 0 72 0 0 125 0 125 78 0 77 0 90 -128 90 -127
45 -3 c25 -2 62 1 83 5 l37 8 -90 127 c-49 70 -90 131 -90 136 0 6 12 13 26
16 36 9 109 86 124 130 7 22 11 69 8 111 -4 96 -37 146 -123 190 l-59 30 -224
3 -224 4 4 -376z m418 225 c94 -50 77 -188 -28 -219 -22 -7 -85 -12 -141 -12
l-101 0 0 125 0 125 118 0 c95 0 124 -4 152 -19z"/>
<path d="M9540 5525 c0 -8 5 -15 10 -15 6 0 10 7 10 15 0 8 -4 15 -10 15 -5 0
-10 -7 -10 -15z"/>
<path d="M3700 5486 c0 -9 5 -16 10 -16 6 0 10 4 10 9 0 6 -4 13 -10 16 -5 3
-10 -1 -10 -9z"/>
<path d="M3360 5476 c0 -9 -4 -15 -8 -12 -5 3 -31 -18 -58 -46 -27 -29 -41
-46 -31 -39 14 11 17 11 17 -3 0 -9 5 -16 10 -16 7 0 7 6 1 19 -12 22 -5 31
22 31 11 0 17 3 14 6 -9 10 13 45 24 39 10 -7 25 23 15 32 -3 4 -6 -1 -6 -11z"/>
<path d="M3680 5466 c0 -9 5 -16 10 -16 6 0 10 4 10 9 0 6 -4 13 -10 16 -5 3
-10 -1 -10 -9z"/>
<path d="M9561 5454 c0 -11 3 -14 6 -6 3 7 2 16 -1 19 -3 4 -6 -2 -5 -13z"/>
<path d="M9412 5430 c0 -14 2 -19 5 -12 2 6 2 18 0 25 -3 6 -5 1 -5 -13z"/>
<path d="M3340 5430 c0 -5 5 -10 10 -10 6 0 10 5 10 10 0 6 -4 10 -10 10 -5 0
-10 -4 -10 -10z"/>
<path d="M9532 5420 c0 -14 2 -19 5 -12 2 6 2 18 0 25 -3 6 -5 1 -5 -13z"/>
<path d="M3307 5387 c3 -5 12 -6 20 -3 11 5 13 2 9 -10 -5 -14 -4 -15 9 -4 22
19 18 26 -14 25 -16 0 -27 -4 -24 -8z"/>
<path d="M9522 5340 c0 -14 2 -19 5 -12 2 6 2 18 0 25 -3 6 -5 1 -5 -13z"/>
<path d="M3260 5335 c0 -8 2 -15 4 -15 2 0 6 7 10 15 3 8 1 15 -4 15 -6 0 -10
-7 -10 -15z"/>
<path d="M3570 5343 c0 -15 -143 -29 -148 -14 -2 6 -17 11 -34 11 -22 0 -29
-4 -24 -15 3 -8 -2 -19 -11 -24 -15 -8 -15 -10 -1 -25 21 -20 32 -20 62 -1 21
14 24 14 29 0 4 -9 1 -15 -8 -15 -8 0 -15 -4 -15 -10 0 -5 3 -9 8 -7 4 1 8 -2
10 -7 1 -6 -5 -11 -15 -12 -10 -2 -23 -10 -30 -19 -6 -10 -16 -14 -22 -10 -6
3 -11 1 -11 -4 0 -6 7 -11 16 -11 8 0 12 -5 9 -10 -4 -6 -11 -8 -16 -5 -5 4
-9 1 -9 -5 0 -7 -11 -2 -25 11 l-24 24 22 6 c21 5 20 6 -11 23 -18 9 -36 15
-41 12 -4 -3 -15 4 -25 16 -15 17 -16 22 -5 29 23 14 0 10 -30 -6 -26 -13 -30
-13 -41 0 -7 8 -9 15 -4 15 5 0 18 13 28 28 19 28 -28 -16 -244 -224 -258
-249 -362 -347 -605 -575 -137 -129 -284 -267 -325 -306 l-75 -73 200 0 200 0
200 192 c166 159 735 719 825 812 14 14 66 63 115 110 50 46 87 87 83 92 -5 4
-8 3 -8 -3z m-80 -67 c0 -2 -7 -7 -16 -10 -8 -3 -12 -2 -9 4 6 10 25 14 25 6z
m-76 -75 c3 -5 -1 -11 -9 -14 -9 -4 -12 -1 -8 9 6 16 10 17 17 5z"/>
<path d="M9420 5265 c0 -8 5 -15 10 -15 6 0 10 7 10 15 0 8 -4 15 -10 15 -5 0
-10 -7 -10 -15z"/>
<path d="M4080 4738 c-2 -274 -4 -518 -5 -543 l0 -45 143 -5 142 -5 -2 457
c-1 252 -3 437 -5 411 l-4 -48 -44 0 c-25 0 -46 5 -49 13 -5 9 -7 9 -12 0 -4
-9 -14 -7 -37 8 -40 24 -47 24 -47 -1 0 -11 -4 -20 -10 -20 -6 0 -11 30 -11
68 -1 37 -4 55 -6 40 -2 -16 -9 -28 -14 -28 -5 0 -9 -15 -9 -34 0 -19 -4 -38
-10 -41 -6 -4 -11 46 -13 132 -1 76 -5 -86 -7 -359z"/>
<path d="M9526 5180 c4 -30 10 -57 14 -60 4 -3 9 -12 12 -20 3 -8 5 19 5 60 0
69 0 71 -7 25 -5 -36 -7 -42 -9 -20 -1 17 -7 39 -12 50 -6 14 -7 2 -3 -35z"/>
<path d="M5600 5155 l0 -65 150 0 150 0 0 65 0 65 -150 0 -150 0 0 -65z"/>
<path d="M3640 4675 l0 -535 145 0 145 0 0 158 c0 87 -3 280 -7 429 l-6 269
-28 16 c-26 15 -28 15 -32 0 -3 -15 -5 -14 -11 3 -5 11 -10 26 -12 33 -2 7
-22 12 -53 12 -61 0 -99 16 -104 44 -2 11 -5 2 -6 -21 0 -23 -6 -45 -13 -49
-14 -9 -2 144 14 163 8 10 5 13 -11 13 l-21 0 0 -535z m33 298 c7 -9 5 -13 -7
-13 -11 0 -16 8 -15 28 0 15 3 21 6 12 3 -8 10 -21 16 -27z"/>
<path d="M3868 5203 c7 -3 16 -2 19 1 4 3 -2 6 -13 5 -11 0 -14 -3 -6 -6z"/>
<path d="M9424 4980 c0 -63 1 -89 3 -57 2 31 2 83 0 115 -2 31 -3 5 -3 -58z"/>
<path d="M3333 4920 l-163 -156 0 -68 0 -69 163 -227 162 -227 3 229 c1 126 1
330 0 452 l-3 223 -162 -157z"/>
<path d="M9530 5050 c-7 -17 -10 -33 -6 -37 3 -3 6 1 6 11 0 9 5 14 10 11 6
-4 10 5 10 19 0 34 -5 33 -20 -4z"/>
<path d="M2710 4280 c-8 -5 -18 -6 -22 -4 -5 3 -7 1 -6 -4 2 -6 -1 -11 -7 -13
-14 -4 -43 -32 -45 -44 -3 -18 -32 -45 -43 -38 -6 3 -7 1 -3 -5 4 -7 0 -12
-10 -12 -26 0 -13 -7 28 -14 36 -6 37 -6 82 60 46 65 56 92 26 74z"/>
</g>
</svg>
